<?xml version="1.0" encoding="UTF-8" standalone="no"?>
<!-- Created with Inkscape (http://www.inkscape.org/) -->

<svg
   width="800"
   height="500"
   viewBox="0 0 211.66666 132.29167"
   version="1.1"
   id="svg5"
   inkscape:version="1.1.1 (3bf5ae0d25, 2021-09-20)"
   sodipodi:docname="4_rows_background.svg"
   xmlns:inkscape="http://www.inkscape.org/namespaces/inkscape"
   xmlns:sodipodi="http://sodipodi.sourceforge.net/DTD/sodipodi-0.dtd"
   xmlns="http://www.w3.org/2000/svg"
   xmlns:svg="http://www.w3.org/2000/svg"
   xmlns:rdf="http://www.w3.org/1999/02/22-rdf-syntax-ns#"
   xmlns:cc="http://creativecommons.org/ns#"
   xmlns:dc="http://purl.org/dc/elements/1.1/">
  <metadata
     id="metadata49">
    <rdf:RDF>
      <cc:Work
         rdf:about="">
        <dc:format>image/svg+xml</dc:format>
        <dc:type
           rdf:resource="http://purl.org/dc/dcmitype/StillImage" />
      </cc:Work>
    </rdf:RDF>
  </metadata>
  <sodipodi:namedview
     id="namedview7"
     pagecolor="#ffffff"
     bordercolor="#666666"
     borderopacity="1.0"
     inkscape:pageshadow="2"
     inkscape:pageopacity="0.0"
     inkscape:pagecheckerboard="0"
     inkscape:document-units="px"
     showgrid="false"
     units="px"
     inkscape:zoom="1.08"
     inkscape:cx="400"
     inkscape:cy="249.53704"
     inkscape:window-width="1920"
     inkscape:window-height="1017"
     inkscape:window-x="-8"
     inkscape:window-y="32"
     inkscape:window-maximized="1"
     inkscape:current-layer="layer1" />
  <defs
     id="defs2" />
  <g
     inkscape:label="Слой 1"
     inkscape:groupmode="layer"
     id="layer1">
    <path
       style="fill:#0000ff;fill-rule:evenodd;stroke:none;stroke-width:3.82821"
       d="M 0,0 V 500 H 800 V 0 Z M 50,5 A 45,45 0 0 1 95,50 45,45 0 0 1 50,95 45,45 0 0 1 5,50 45,45 0 0 1 50,5 Z M 150,5 A 45,45 0 0 1 195,50 45,45 0 0 1 150,95 45,45 0 0 1 105,50 45,45 0 0 1 150,5 Z M 250,5 A 45,45 0 0 1 295,50 45,45 0 0 1 250,95 45,45 0 0 1 205,50 45,45 0 0 1 250,5 Z M 350,5 A 45,45 0 0 1 395,50 45,45 0 0 1 350,95 45,45 0 0 1 305,50 45,45 0 0 1 350,5 Z M 450,5 A 45,45 0 0 1 495,50 45,45 0 0 1 450,95 45,45 0 0 1 405,50 45,45 0 0 1 450,5 Z M 550,5 A 45,45 0 0 1 595,50 45,45 0 0 1 550,95 45,45 0 0 1 505,50 45,45 0 0 1 550,5 Z M 650,5 A 45,45 0 0 1 695,50 45,45 0 0 1 650,95 45,45 0 0 1 605,50 45,45 0 0 1 650,5 Z M 750,5 A 45,45 0 0 1 795,50 45,45 0 0 1 750,95 45,45 0 0 1 705,50 45,45 0 0 1 750,5 Z M 50,105 A 45,45 0 0 1 95,150 45,45 0 0 1 50,195 45,45 0 0 1 5,150 45,45 0 0 1 50,105 Z m 100,0 a 45,45 0 0 1 45,45 45,45 0 0 1 -45,45 45,45 0 0 1 -45,-45 45,45 0 0 1 45,-45 z m 100,0 a 45,45 0 0 1 45,45 45,45 0 0 1 -45,45 45,45 0 0 1 -45,-45 45,45 0 0 1 45,-45 z m 100,0 a 45,45 0 0 1 45,45 45,45 0 0 1 -45,45 45,45 0 0 1 -45,-45 45,45 0 0 1 45,-45 z m 100,0 a 45,45 0 0 1 45,45 45,45 0 0 1 -45,45 45,45 0 0 1 -45,-45 45,45 0 0 1 45,-45 z m 100,0 a 45,45 0 0 1 45,45 45,45 0 0 1 -45,45 45,45 0 0 1 -45,-45 45,45 0 0 1 45,-45 z m 100,0 a 45,45 0 0 1 45,45 45,45 0 0 1 -45,45 45,45 0 0 1 -45,-45 45,45 0 0 1 45,-45 z m 100,0 a 45,45 0 0 1 45,45 45,45 0 0 1 -45,45 45,45 0 0 1 -45,-45 45,45 0 0 1 45,-45 z M 50,205 A 45,45 0 0 1 95,250 45,45 0 0 1 50,295 45,45 0 0 1 5,250 45,45 0 0 1 50,205 Z m 100,0 a 45,45 0 0 1 45,45 45,45 0 0 1 -45,45 45,45 0 0 1 -45,-45 45,45 0 0 1 45,-45 z m 100,0 a 45,45 0 0 1 45,45 45,45 0 0 1 -45,45 45,45 0 0 1 -45,-45 45,45 0 0 1 45,-45 z m 100,0 a 45,45 0 0 1 45,45 45,45 0 0 1 -45,45 45,45 0 0 1 -45,-45 45,45 0 0 1 45,-45 z m 100,0 a 45,45 0 0 1 45,45 45,45 0 0 1 -45,45 45,45 0 0 1 -45,-45 45,45 0 0 1 45,-45 z m 100,0 a 45,45 0 0 1 45,45 45,45 0 0 1 -45,45 45,45 0 0 1 -45,-45 45,45 0 0 1 45,-45 z m 100,0 a 45,45 0 0 1 45,45 45,45 0 0 1 -45,45 45,45 0 0 1 -45,-45 45,45 0 0 1 45,-45 z m 100,0 a 45,45 0 0 1 45,45 45,45 0 0 1 -45,45 45,45 0 0 1 -45,-45 45,45 0 0 1 45,-45 z M 50,305 A 45,45 0 0 1 95,350 45,45 0 0 1 50,395 45,45 0 0 1 5,350 45,45 0 0 1 50,305 Z m 100,0 a 45,45 0 0 1 45,45 45,45 0 0 1 -45,45 45,45 0 0 1 -45,-45 45,45 0 0 1 45,-45 z m 100,0 a 45,45 0 0 1 45,45 45,45 0 0 1 -45,45 45,45 0 0 1 -45,-45 45,45 0 0 1 45,-45 z m 100,0 a 45,45 0 0 1 45,45 45,45 0 0 1 -45,45 45,45 0 0 1 -45,-45 45,45 0 0 1 45,-45 z m 100,0 a 45,45 0 0 1 45,45 45,45 0 0 1 -45,45 45,45 0 0 1 -45,-45 45,45 0 0 1 45,-45 z m 100,0 a 45,45 0 0 1 45,45 45,45 0 0 1 -45,45 45,45 0 0 1 -45,-45 45,45 0 0 1 45,-45 z m 100,0 a 45,45 0 0 1 45,45 45,45 0 0 1 -45,45 45,45 0 0 1 -45,-45 45,45 0 0 1 45,-45 z m 100,0 a 45,45 0 0 1 45,45 45,45 0 0 1 -45,45 45,45 0 0 1 -45,-45 45,45 0 0 1 45,-45 z M 50,405 A 45,45 0 0 1 95,450 45,45 0 0 1 50,495 45,45 0 0 1 5,450 45,45 0 0 1 50,405 Z m 100,0 a 45,45 0 0 1 45,45 45,45 0 0 1 -45,45 45,45 0 0 1 -45,-45 45,45 0 0 1 45,-45 z m 100,0 a 45,45 0 0 1 45,45 45,45 0 0 1 -45,45 45,45 0 0 1 -45,-45 45,45 0 0 1 45,-45 z m 100,0 a 45,45 0 0 1 45,45 45,45 0 0 1 -45,45 45,45 0 0 1 -45,-45 45,45 0 0 1 45,-45 z m 100,0 a 45,45 0 0 1 45,45 45,45 0 0 1 -45,45 45,45 0 0 1 -45,-45 45,45 0 0 1 45,-45 z m 100,0 a 45,45 0 0 1 45,45 45,45 0 0 1 -45,45 45,45 0 0 1 -45,-45 45,45 0 0 1 45,-45 z m 100,0 a 45,45 0 0 1 45,45 45,45 0 0 1 -45,45 45,45 0 0 1 -45,-45 45,45 0 0 1 45,-45 z m 100,0 a 45,45 0 0 1 45,45 45,45 0 0 1 -45,45 45,45 0 0 1 -45,-45 45,45 0 0 1 45,-45 z"
       transform="scale(0.26458333)"
       id="rect35" />
  </g>
</svg>
